<?xml version="1.0" encoding="utf-8"?>
<!-- Generator: Adobe Illustrator 16.0.0, SVG Export Plug-In . SVG Version: 6.00 Build 0)  -->
<!DOCTYPE svg PUBLIC "-//W3C//DTD SVG 1.1//EN" "http://www.w3.org/Graphics/SVG/1.1/DTD/svg11.dtd">
<svg version="1.1" id="Layer_1" xmlns="http://www.w3.org/2000/svg" xmlns:xlink="http://www.w3.org/1999/xlink" x="0px" y="0px"
	 width="352px" height="395px" viewBox="0 0 352 395" enable-background="new 0 0 352 395" xml:space="preserve">
<path fill="#010101" d="M30.43,31.32C50.82,12.94,77.99,3.61,104.99,1.03c8.1-0.271,16.42-0.96,24.36,1.07
	c-0.23,3.5-3.66,5.22-5.56,7.79c-6.22,7.68-11.27,16.23-16.27,24.74C98.06,51.18,89.55,68.25,81.68,85.6
	c21.78-10.77,43.02-23.32,60.56-40.34c3.23-2.979,6-6.61,10.02-8.6c1.74,4.6,0.56,9.56-0.05,14.26
	c-3.2,22.33-15.18,42.57-30.67,58.64c-17.6,17.69-39,31.73-62.36,40.55c-4.42,18.01-7.54,36.44-14.12,53.85
	c10.3,3.64,20.54,7.46,30.66,11.56c3.58-4.699,8.22-8.359,12.35-12.51c-1.12-4.6-2.67-9.14-2.98-13.9
	c-1.21-17.9,8.63-36.13,24.47-44.67c12.79-7.21,29.36-7.7,42.17-0.29c9.78,5.36,16.67,14.99,19.77,25.6
	c3.08-10.61,10-20.23,19.76-25.6c10.131-5.82,22.68-6.85,33.76-3.32c14.41,4.45,26.07,16.33,30.61,30.66
	c2.89,8.5,2.97,17.67,0.91,26.36c8.38,5.95,15.5,13.39,22.53,20.83c8.89-3.25,17.93-6.02,26.959-8.81
	c0.021-0.771,0.07-2.31,0.091-3.08c0.2,0.01,0.601,0.04,0.8,0.05l0.13,2.23c10.49,0.15,20.101,6.789,25.82,15.3
	c-0.41-20.149,0.58-40.36-1.19-60.47c-0.359-3.2-0.539-7.04-3.63-8.89c-8.88-6.22-20.271-8.81-30.979-7.14
	c2.85,15.13,4.68,30.42,7.25,45.59c0.77,4.23,1.789,8.46,1.609,12.8c-0.199,0.03-0.59,0.09-0.789,0.12
	c-4.101-15.56-6.961-31.4-9.641-47.26c-0.46-1.33-0.26-3.3-1.7-4c-24.38-11.12-46.78-27.25-63.79-48.07
	c-15.52-19.14-25.77-43.62-24.119-68.57c1.42,0.32,3.02,0.45,3.969,1.73c6.601,6.7,13.021,13.62,20.271,19.65
	c13.601,11.88,29.271,21.02,44.81,30.08c-8.109-21.1-17.68-41.65-28.459-61.52c-4.451-8.25-9.711-16.03-15.9-23.07
	c1.62-1.14,3.51-1.71,5.5-1.7c16.779-0.93,33.55,2.43,49.34,7.94c20.439,7.32,40,19.37,52.45,37.54
	c10.351,14.65,14.72,32.98,13.659,50.77c-1.209,19.77-7.43,39.1-16.819,56.47c1.271-4.45,3.25-8.64,4.79-13
	c7.561-20.73,12.3-43.49,7.38-65.41c-3.68-17.13-13.81-32.53-27.42-43.44c-13.399-10.93-29.5-18.21-46.12-22.7
	c-11.76-3.15-23.96-5-36.16-4.55c6.86,8.73,12.131,18.55,17.16,28.41c6.1,11.84,11.49,24.04,16.61,36.33
	c7.51,18.26,14.319,36.86,19.25,55.99c1.37,5.54,2.62,11.13,3.18,16.82c12.04-3.31,25.271-0.62,35.67,6.08
	c2.31,1.37,4.07,3.43,5.62,5.59c1.78,16.42,1.7,32.99,0.439,49.449c0.15,7.961-1.719,15.811-1.119,23.771
	c-12.471,5.47-25.471,9.64-38.461,13.681c0.791,2.52,1.75,4.989,2.57,7.52c-10.42-19.4-24.529-36.98-42.459-49.92
	c-3.65,9.89-10.811,18.58-20.311,23.33c-11.24,5.859-25.1,6.06-36.65,0.959c-13.34-5.629-23.57-17.77-27.229-31.719
	c-3.59,14.51-14.64,26.911-28.56,32.32c-9.17,3.64-19.59,3.99-29.02,1.06c-10.5-3.41-19.35-11.129-24.4-20.93
	c-17.12,14.67-30.23,33.35-40.88,53.09c5.75,10.07,11.69,20.16,19.59,28.74c17.28,19.96,41.95,32.74,67.83,37.23
	c29.79,5.319,60.79,1.31,89.1-8.96c19.211-7.141,37.601-17.261,52.5-31.48c9.291-8.84,16.781-19.67,20.931-31.86l-0.14-1.09
	c6.8,2.721,13.66,5.37,20.14,8.82c2.7,1.25,3.67,4.3,5.739,6.25c11.091,10.99,17.381,26.68,16.811,42.29
	c0.25,7.59-0.64,15.16-2.35,22.54c-0.52,1.29-1.48,1.81-2.881,1.58c-1.76-3.19-2.549-6.8-3.84-10.19
	c-3.949-11.569-10.1-22.68-19.439-30.78c-4.03-0.069-7.9-1.56-11.109-3.949c-1.271-0.35-2.531-0.721-3.781-1.11
	c0.92,0.72,2.011,1.3,2.74,2.261c2.62,7.209,7.16,13.64,8.76,21.239c4.9,17.72-0.689,36.24-8.719,52.13
	c-0.58,0.16-1.761,0.48-2.341,0.641c-1.76-3.141-0.93-6.841-1.569-10.25c-1.08-12.54-3.621-25.721-11.551-35.851
	c-6.17-2.14-10.84-7.069-15.289-11.62c2.449,3.7,5.139,7.7,4.469,12.4c-4.739,8.05-11.469,17.17-21.689,17.62
	c5.3,12.319,4.08,26.109,1.48,38.92c5.5-6.57,10.689-13.521,14.189-21.38c3.91-8.48,5.58-17.891,5.41-27.2
	c-0.08-2.46,0.061-4.92,0.63-7.31c5.67,20.09-2.45,41.529-15.931,56.619c-2.889,2.9-4.899,7.391-9.389,8.03
	c-0.33-3.95,1.02-7.689,1.879-11.47c2.86-11.75,3.82-24.37,0.42-36.08c-6.26-5.73-9.799-13.561-13.43-21.061
	c-17.38,7.721-35.85,13.12-54.779,15.23c-25.32,2.91-51.661,0.52-75.221-9.64c-3.24,5.229-6.21,10.63-9.78,15.649
	c-3.03,4.26-6.18,8.721-10.9,11.271c-5.62,13.06-5.42,27.67-3.45,41.5c0.24,1.67,0.53,3.41,0.01,5.069
	c-0.21,0.29-0.64,0.86-0.86,1.15h-1.54l-0.08-0.45c-8.65-11.33-16.18-24.149-18.12-38.49c-0.85-6.439-0.59-13,0.63-19.369
	c0.86-4.82,3.07-9.32,3.44-14.23c1.49-2.24,3.24-4.26,4.89-6.37c-5.38,3.34-10.24,8.271-16.77,9.12
	C48,333.74,43.32,344.15,40.83,355c-1.35,4.85-1.53,10.03-3.74,14.61c-1.02-0.82-2.45-1.391-2.81-2.78
	c-4.49-12.9-6.99-26.811-4.77-40.42c1.49-8.84,5.33-17.17,10.55-24.41c1.28-1.75,2.43-3.58,3.26-5.58c0.87-0.87,1.74-1.74,2.58-2.63
	c-4.78,1.63-9.61,3.351-14.72,3.431c-9.43,6.06-16.29,15.51-21.5,25.339c-2.58,4.19-3.76,9.261-7.35,12.78
	c-2.36-2.91-1.93-6.81-2.33-10.3v-6.32c0.32-2.91,0.64-5.819,0.94-8.729c1.56-13.631,7.78-26.77,17.79-36.23
	c2.51-2.6,5.99-4.279,7.66-7.63c7.03-3.479,14.8-4.979,22.21-7.42c2.46-6.69,5.92-12.94,9.41-19.13
	c-12.41-4.73-24.88-9.34-37.03-14.689c-1.65-0.69-3.15-1.65-4.5-2.801c1.45-7.64-0.31-15.4-0.01-23.09
	c0.24-16.29-0.27-32.77,2.92-48.83C9.17,128.48,2.77,104.2,5.54,80.12C7.63,61.54,16.7,43.96,30.43,31.32z"/>
<path fill="#FE0000" d="M82.77,8.66c13.16-3.29,26.82-4.99,40.37-3.9C114.49,15,107.86,26.72,101.4,38.41
	C90.97,57.87,81.54,77.87,73.5,98.44c-5.16,13.46-10.27,27.1-12.54,41.39c-9.9-3.68-20.98-2.2-30.59,1.63
	c-4.11,1.91-8.68,3.92-10.93,8.13c-7.2-20.35-13.4-41.75-11.58-63.58c1.13-17.36,8.13-34.37,20.11-47.06
	C42.45,23.34,62.38,13.86,82.77,8.66z"/>
<path fill="#FE0000" d="M237.18,7.27c12.2-0.45,24.4,1.4,36.16,4.55c16.62,4.49,32.721,11.77,46.12,22.7
	c13.61,10.91,23.74,26.31,27.42,43.44c4.92,21.92,0.181,44.68-7.38,65.41c-1.54,4.36-3.52,8.55-4.79,13l-0.04,0.12
	c-1.55-2.16-3.311-4.22-5.62-5.59c-10.399-6.7-23.63-9.39-35.67-6.08c-0.56-5.69-1.81-11.28-3.18-16.82
	c-4.931-19.13-11.74-37.73-19.25-55.99c-5.12-12.29-10.511-24.49-16.61-36.33C249.311,25.82,244.04,16,237.18,7.27z"/>
<path fill="#FE0000" d="M132.38,58.31c5.94-4.59,11.5-9.63,16.98-14.75c-1.76,21.59-11.58,41.94-25.65,58.2
	c-17.52,20.59-40.56,35.51-64.36,47.88c1.6-5.42,2.22-11.08,4.02-16.44c4.57-15.03,10.61-29.56,16.83-43.96
	c0.57-1.35,1.33-2.78,2.87-3.17C100.49,78.75,117.51,70.07,132.38,58.31z"/>
<path fill="#FE0000" d="M209.26,44.84c7.58,7.76,15.461,15.28,24.16,21.79c11.641,8.86,24.46,16.04,37.609,22.39
	c1.891,1.02,4.551,1.52,5.101,3.95c7.681,20.05,15.181,40.41,18.37,61.74c-27.471-15.58-53.811-35.37-70.5-62.69
	C215.279,77.82,210.02,61.51,209.26,44.84z"/>
<path fill="#FE0000" d="M25.55,148.57c9.21-5.96,20.9-8.32,31.64-5.89c-4.79,20.11-7.82,40.61-12.87,60.66
	c-10.43-0.49-20.1,5.91-26.29,13.91c1.29-20.06,1.16-40.24,3.83-60.2C22.44,154.04,22.46,150.21,25.55,148.57z"/>
<path fill="#FFFFFF" d="M124.48,142.66c9.61-1.69,19.87,0.35,27.97,5.85c7.81,5.13,13.42,13.33,15.79,22.34
	c2.92,11.19,1.05,23.49-4.99,33.36c-7.26,12.34-20.92,20.87-35.33,21.16c-9.69,0.39-19.41-3.19-26.62-9.649
	c-8.86-7.871-13.47-19.941-12.9-31.691C89.09,164.15,104.71,145.79,124.48,142.66z"/>
<path fill="#FFFFFF" d="M204.58,142.77c11.58-2.25,23.93,1.17,33.09,8.48c8.91,7.02,15.03,17.54,16.52,28.79
	c1.59,10.85-1.25,22.41-8.129,31.01c-6.881,8.79-17.84,14.22-29.011,14.33c-9.55,0.261-19.05-3.12-26.56-8.97
	c-9.69-7.52-16.02-19.21-16.98-31.45c-0.87-10.67,2.4-21.82,9.57-29.87C188.58,148.7,196.3,144.3,204.58,142.77z"/>
<path fill="#FE0000" d="M297.07,147.87c10.709-1.67,22.1,0.92,30.979,7.14c3.091,1.85,3.271,5.69,3.63,8.89
	c1.771,20.11,0.78,40.321,1.19,60.47c-5.72-8.511-15.33-15.149-25.82-15.3l-0.13-2.23c-0.199-0.01-0.6-0.04-0.8-0.05l-0.19-0.53
	c0.18-4.34-0.84-8.57-1.609-12.8C301.75,178.29,299.92,163,297.07,147.87z"/>
<path fill="#010101" d="M126.45,161.61c8.16-2.15,17.44,0.53,22.95,6.99c6.88,7.64,7.58,19.93,1.8,28.39
	c-4.16,6.32-11.62,10.3-19.2,10.119c-7.72-0.02-15.26-4.18-19.41-10.679c-4.14-6.27-4.86-14.64-1.84-21.52
	C113.52,168.35,119.53,163.31,126.45,161.61z"/>
<path fill="#010101" d="M204.51,161.72c12.6-3.86,27.18,5.05,29.221,18.11c2.459,11.8-5.99,24.24-17.701,26.689
	c-7.77,1.84-16.479-0.64-21.879-6.58c-5.7-5.959-7.7-15.069-5.221-22.91C191.061,169.71,197.15,163.72,204.51,161.72z"/>
<path fill="#FE0000" d="M171.45,193.56c3.66,13.95,13.89,26.09,27.229,31.719c11.551,5.101,25.41,4.9,36.65-0.959
	c9.5-4.75,16.66-13.44,20.311-23.33c17.93,12.939,32.039,30.52,42.459,49.92c0.08,0.189,0.23,0.58,0.301,0.77l0.14,1.09
	c-4.149,12.19-11.64,23.021-20.931,31.86c-14.899,14.22-33.289,24.34-52.5,31.48c-28.31,10.27-59.31,14.279-89.1,8.96
	c-25.88-4.49-50.55-17.271-67.83-37.23c-7.9-8.58-13.84-18.67-19.59-28.74c10.65-19.74,23.76-38.42,40.88-53.09
	c5.05,9.801,13.9,17.52,24.4,20.93c9.43,2.931,19.85,2.58,29.02-1.06C156.81,220.471,167.86,208.07,171.45,193.56z"/>
<path fill="#FE0000" d="M34.17,209.27c3.14-1.39,6.68-2.869,10.14-1.709c9.98,2.949,19.85,6.289,29.87,9.09
	c-5.53,6.89-10.9,13.92-15.49,21.479c-12.46-6.28-25.42-11.51-38-17.521C23.82,215.49,28.83,211.83,34.17,209.27z"/>
<path fill="#FE0000" d="M280.35,220.27c8.92-2.16,17.76-4.67,26.66-6.92c2.561-0.789,5.24,0.041,7.62,1.041
	c6.229,2.76,11.931,7.119,15.45,13.049c-11.75,5.021-23.801,9.33-35.54,14.381C290.58,234.16,285.721,227,280.35,220.27z"/>
<path fill="#010101" d="M258.311,250.189c1.209-0.85,2.479-1.609,3.77-2.35c-4.1,4.7-9.061,8.52-14,12.27
	c-15.58,11.08-32.311,20.551-49.79,28.291c-7.09,2.869-14.44,6.359-22.3,5.58c-11.45-0.871-22.7-3.431-33.79-6.301
	c-17.65-4.76-35.01-10.93-51.15-19.57c-4.65-2.739-9.61-5.189-13.37-9.129c24.14,13.069,50.37,21.99,77.18,27.709
	c10.23,1.631,20.95,5.16,31.23,2.11c8.91-2.819,17.4-6.8,25.78-10.909C228,269.82,243.779,260.91,258.311,250.189z"/>
<path fill="#FE0000" d="M298.891,253.4c5.869,3.379,11.949,6.39,17.789,9.83c3.61,1.799,2.26,6.56,2.35,9.81
	c-0.77,5.489-1.729,12.3-6.939,15.38c-4.369,0.07-8.22-2.6-12.119-4.279c-4.281-2.16-8.531-4.371-12.691-6.75
	C292.85,270.38,296.93,262.15,298.891,253.4z"/>
<path fill="#FE0000" d="M29.14,268.34c6.53-2.66,13.09-5.25,19.65-7.83c3.34,8.35,7.9,16.15,13.03,23.52
	c-8.9,3.201-17.54,7.421-26.88,9.211c-3.3,1-5.19-2.631-6.04-5.211C27.02,281.689,26.68,274.57,29.14,268.34z"/>
<path fill="#FE0000" d="M323.109,266.96c4.361,6.3,8.5,12.88,11,20.181c4.24,11.779,4.061,24.649,2.17,36.879
	c-4.529-12.27-11.02-24.529-22.129-32.049C322.24,286.59,323.141,275.8,323.109,266.96z"/>
<path fill="#FE0000" d="M10.89,288.95c3.32-7.06,8.57-12.88,13.51-18.83c-1.4,8.79-1.97,20.17,5.78,26.28
	c-12.12,6.02-20.37,17.56-26.1,29.47C3.62,313.3,5.11,300.29,10.89,288.95z"/>
<path fill="#FE0000" d="M285.35,279.9c4.23,3.97,8.84,7.619,12.551,12.09c0.17,6.569-2.94,12.93-6.891,18.04
	c-1.64,1.88-4.25,4.54-6.93,3.02c-6.76-3.89-12.141-9.67-17.971-14.76C273.07,292.779,279.859,286.92,285.35,279.9z"/>
<path fill="#FE0000" d="M46.78,297.78c5.17-4.36,10.88-8.03,16.29-12.091c5.6,6.99,11.73,13.591,18.74,19.2
	c-5.12,3.971-10.46,7.66-15.81,11.301c-3.16,1.979-6.26,4.329-9.97,5.149c-1.94,0.11-3.29-1.52-4.43-2.85
	c-3.57-4.73-5.29-10.67-5.78-16.521C45.86,300.54,45.41,298.74,46.78,297.78z"/>
<path fill="#FE0000" d="M286.93,317.45c9.221-3.23,13.26-13.73,14.7-22.62c2.25,6.62,4.7,13.25,5.49,20.24
	c1.93,13.239-1.5,26.59-6.66,38.72C298.779,340.9,295.71,327.52,286.93,317.45z"/>
<path fill="#FE0000" d="M240.27,313.7c8.03-3.811,15.721-8.311,22.99-13.41c2.6,4.92,5.51,9.67,7.83,14.74
	c-2.84,6.319-7.449,11.989-13.52,15.439c-2.021,1.09-5.19,1.94-6.78-0.27C246.54,325.22,243.48,319.37,240.27,313.7z"/>
<path fill="#FE0000" d="M34.73,317.85c1.75-5.819,4.43-11.29,7.22-16.659c0.63,8.88,3.17,19.71,11.97,23.89
	c-9.95,8.77-14.75,21.62-17.81,34.18C31.68,346.02,30.66,331.32,34.73,317.85z"/>
<path fill="#010101" d="M182.02,305.72c4.94-0.27,9.451-2.399,14.08-3.899c-8.149,7.37-21,7.67-30.439,2.689
	C171.11,304.95,176.52,306.4,182.02,305.72z"/>
<path fill="#FE0000" d="M83.36,306.03c6.96,5.42,14.54,10.13,22.65,13.64c-5.72,7.67-10.9,15.91-17.89,22.5
	c-1.89,2.11-4.83,0.76-6.74-0.56c-4.31-3.07-7.45-7.54-9.76-12.25c-0.77-1.99-2.43-4.38-0.73-6.351
	C74.83,317.2,78.9,311.46,83.36,306.03z"/>
<path fill="#FE0000" d="M252.5,335.7c10.221-0.45,16.95-9.57,21.689-17.62c0.011,0.16,0.021,0.479,0.021,0.65
	c-0.569,2.39-0.71,4.85-0.63,7.31c0.17,9.31-1.5,18.72-5.41,27.2c-3.5,7.859-8.689,14.81-14.189,21.38
	C256.58,361.81,257.8,348.02,252.5,335.7z"/>
<path fill="#FE0000" d="M67.06,328.68c3.65,8.07,9.2,17.33,18.79,18.7c-6.84,11.47-7.45,25.34-6.31,38.311
	c-7.94-11.341-13.85-24.631-14.17-38.66C65.17,340.87,65.91,334.72,67.06,328.68z"/>
</svg>
